<?xml version="1.0" encoding="UTF-8" standalone="no"?>
<!DOCTYPE svg PUBLIC "-//W3C//DTD SVG 1.1//EN"
 "http://www.w3.org/Graphics/SVG/1.1/DTD/svg11.dtd">
<!-- Generated by graphviz version 2.28.0 (20110507.0327)
 -->
<!-- Title: G Pages: 1 -->
<svg width="482pt" height="276pt"
 viewBox="0.00 0.00 482.00 276.00" xmlns="http://www.w3.org/2000/svg" xmlns:xlink="http://www.w3.org/1999/xlink">
<g id="graph1" class="graph" transform="scale(1 1) rotate(0) translate(4 272)">
<title>G</title>
<polygon fill="white" stroke="white" points="-4,5 -4,-272 479,-272 479,5 -4,5"/>
<g id="graph2" class="cluster"><title>cluster_Global</title>
<polyline fill="none" stroke="gray" points="20,-8 454,-8 "/>
<path fill="none" stroke="gray" d="M454,-8C460,-8 466,-14 466,-20"/>
<polyline fill="none" stroke="gray" points="466,-20 466,-248 "/>
<path fill="none" stroke="gray" d="M466,-248C466,-254 460,-260 454,-260"/>
<polyline fill="none" stroke="gray" points="454,-260 20,-260 "/>
<path fill="none" stroke="gray" d="M20,-260C14,-260 8,-254 8,-248"/>
<polyline fill="none" stroke="gray" points="8,-248 8,-20 "/>
<path fill="none" stroke="gray" d="M8,-20C8,-14 14,-8 20,-8"/>
<text text-anchor="middle" x="237" y="-247.2" font-family="Times New Roman,serif" font-size="11.00" fill="gray">Global</text>
</g>
<g id="graph3" class="cluster"><title>cluster_\Zuko</title>
<polyline fill="none" stroke="gray" points="28,-16 446,-16 "/>
<path fill="none" stroke="gray" d="M446,-16C452,-16 458,-22 458,-28"/>
<polyline fill="none" stroke="gray" points="458,-28 458,-220 "/>
<path fill="none" stroke="gray" d="M458,-220C458,-226 452,-232 446,-232"/>
<polyline fill="none" stroke="gray" points="446,-232 28,-232 "/>
<path fill="none" stroke="gray" d="M28,-232C22,-232 16,-226 16,-220"/>
<polyline fill="none" stroke="gray" points="16,-220 16,-28 "/>
<path fill="none" stroke="gray" d="M16,-28C16,-22 22,-16 28,-16"/>
<text text-anchor="middle" x="237" y="-219.2" font-family="Times New Roman,serif" font-size="11.00" fill="gray">Zuko</text>
</g>
<g id="graph4" class="cluster"><title>cluster_\Zuko\PhpStrAdv</title>
<polyline fill="none" stroke="gray" points="36,-24 438,-24 "/>
<path fill="none" stroke="gray" d="M438,-24C444,-24 450,-30 450,-36"/>
<polyline fill="none" stroke="gray" points="450,-36 450,-192 "/>
<path fill="none" stroke="gray" d="M450,-192C450,-198 444,-204 438,-204"/>
<polyline fill="none" stroke="gray" points="438,-204 36,-204 "/>
<path fill="none" stroke="gray" d="M36,-204C30,-204 24,-198 24,-192"/>
<polyline fill="none" stroke="gray" points="24,-192 24,-36 "/>
<path fill="none" stroke="gray" d="M24,-36C24,-30 30,-24 36,-24"/>
<text text-anchor="middle" x="237" y="-191.2" font-family="Times New Roman,serif" font-size="11.00" fill="gray">PhpStrAdv</text>
</g>
<!-- \\Zuko\\PhpStrAdv\\AdvanceStringProcesser -->
<g id="node4" class="node"><title>\\Zuko\\PhpStrAdv\\AdvanceStringProcesser</title>
<polygon fill="none" stroke="black" points="197.5,-122 32.5,-122 32.5,-86 197.5,-86 197.5,-122"/>
<text text-anchor="middle" x="115" y="-101.2" font-family="Courier,monospace" font-size="11.00">AdvanceStringProcesser</text>
</g>
<!-- \\Zuko\\PhpStrAdv\\PortableStringProcesser -->
<g id="node5" class="node"><title>\\Zuko\\PhpStrAdv\\PortableStringProcesser</title>
<polygon fill="none" stroke="black" points="442,-176 270,-176 270,-140 442,-140 442,-176"/>
<text text-anchor="middle" x="356" y="-155.2" font-family="Courier,monospace" font-size="11.00">PortableStringProcesser</text>
</g>
<!-- \\Zuko\\PhpStrAdv\\Str -->
<g id="node6" class="node"><title>\\Zuko\\PhpStrAdv\\Str</title>
<polygon fill="none" stroke="black" points="383,-122 329,-122 329,-86 383,-86 383,-122"/>
<text text-anchor="middle" x="356" y="-101.2" font-family="Courier,monospace" font-size="11.00">Str</text>
</g>
<!-- \\Zuko\\PhpStrAdv\\Str&#45;&gt;\\Zuko\\PhpStrAdv\\AdvanceStringProcesser -->
<g id="edge5" class="edge"><title>\\Zuko\\PhpStrAdv\\Str&#45;&gt;\\Zuko\\PhpStrAdv\\AdvanceStringProcesser</title>
<path fill="none" stroke="black" d="M328.968,-104C299.898,-104 251.208,-104 207.716,-104"/>
<polygon fill="none" stroke="black" points="207.659,-100.5 197.659,-104 207.659,-107.5 207.659,-100.5"/>
</g>
<!-- \\Zuko\\PhpStrAdv\\ZStrConfigs -->
<g id="node7" class="node"><title>\\Zuko\\PhpStrAdv\\ZStrConfigs</title>
<polygon fill="none" stroke="black" points="401.5,-68 310.5,-68 310.5,-32 401.5,-32 401.5,-68"/>
<text text-anchor="middle" x="356" y="-47.2" font-family="Courier,monospace" font-size="11.00">ZStrConfigs</text>
</g>
</g>
</svg>
